<svg xmlns="http://www.w3.org/2000/svg" xmlns:xlink="http://www.w3.org/1999/xlink" version="1.2" width="180.11mm" height="77.95mm" viewBox="-0.0600 -0.0000 102.4899 44.3573">
<style type="text/css">
<![CDATA[
tspan { white-space: pre; }
]]>
</style>
<g transform="translate(41.5695, 2.4234)">
<text font-family="serif" font-weight="bold" font-size="3.4929" text-anchor="start" fill="currentColor">
<tspan>Greensleeves</tspan>
</text>
</g>
<g transform="translate(74.3641, 5.9234)">
<text font-family="serif" font-size="2.2000" text-anchor="start" fill="currentColor">
<tspan>Traditional, arranged by Vellum</tspan>
</text>
</g>
<g transform="translate(60.6188, 10.1982)">
<rect x="0.0000" y="-2.0000" width="0.1900" height="4.0000" ry="0.0000" fill="currentColor"/>
</g>
<g transform="translate(102.2399, 10.1982)">
<rect x="0.0000" y="-2.0000" width="0.1900" height="4.0000" ry="0.0000" fill="currentColor"/>
</g>
<g transform="translate(33.8487, 35.0183)">
<rect x="0.0000" y="-2.0000" width="0.1900" height="4.0000" ry="0.0000" fill="currentColor"/>
</g>
<g transform="translate(102.2399, 20.0554)">
<rect x="0.0000" y="-3.0000" width="0.1900" height="6.0000" ry="0.0000" fill="currentColor"/>
</g>
<g transform="translate(86.0710, 20.0554)">
<rect x="0.0000" y="-3.0000" width="0.1900" height="6.0000" ry="0.0000" fill="currentColor"/>
</g>
<g transform="translate(102.2399, 35.0183)">
<rect x="0.0000" y="-2.0000" width="0.1900" height="4.0000" ry="0.0000" fill="currentColor"/>
</g>
<g transform="translate(60.6188, 35.0183)">
<rect x="0.0000" y="-2.0000" width="0.1900" height="4.0000" ry="0.0000" fill="currentColor"/>
</g>
<g transform="translate(86.0710, 10.1982)">
<rect x="0.0000" y="-2.0000" width="0.1900" height="4.0000" ry="0.0000" fill="currentColor"/>
</g>
<g transform="translate(86.0710, 35.0183)">
<rect x="0.0000" y="-2.0000" width="0.1900" height="4.0000" ry="0.0000" fill="currentColor"/>
</g>
<g transform="translate(60.6188, 20.0554)">
<rect x="0.0000" y="-3.0000" width="0.1900" height="6.0000" ry="0.0000" fill="currentColor"/>
</g>
<g transform="translate(33.8487, 20.0554)">
<rect x="0.0000" y="-3.0000" width="0.1900" height="6.0000" ry="0.0000" fill="currentColor"/>
</g>
<g transform="translate(33.8487, 10.1982)">
<rect x="0.0000" y="-2.0000" width="0.1900" height="4.0000" ry="0.0000" fill="currentColor"/>
</g>
<g transform="translate(0.0000, 37.0183)">
<line stroke-linejoin="round" stroke-linecap="round" stroke-width="0.1000" stroke="currentColor" x1="0.0500" y1="0" x2="102.3799" y2="0"/>
</g>
<g transform="translate(0.0000, 36.0183)">
<line stroke-linejoin="round" stroke-linecap="round" stroke-width="0.1000" stroke="currentColor" x1="0.0500" y1="0" x2="102.3799" y2="0"/>
</g>
<g transform="translate(0.0000, 35.0183)">
<line stroke-linejoin="round" stroke-linecap="round" stroke-width="0.1000" stroke="currentColor" x1="0.0500" y1="0" x2="102.3799" y2="0"/>
</g>
<g transform="translate(0.0000, 34.0183)">
<line stroke-linejoin="round" stroke-linecap="round" stroke-width="0.1000" stroke="currentColor" x1="0.0500" y1="0" x2="102.3799" y2="0"/>
</g>
<g transform="translate(0.0000, 33.0183)">
<line stroke-linejoin="round" stroke-linecap="round" stroke-width="0.1000" stroke="currentColor" x1="0.0500" y1="0" x2="102.3799" y2="0"/>
</g>
<g transform="translate(0.0000, 12.1982)">
<line stroke-linejoin="round" stroke-linecap="round" stroke-width="0.1000" stroke="currentColor" x1="0.0500" y1="0" x2="102.3799" y2="0"/>
</g>
<g transform="translate(0.0000, 11.1982)">
<line stroke-linejoin="round" stroke-linecap="round" stroke-width="0.1000" stroke="currentColor" x1="0.0500" y1="0" x2="102.3799" y2="0"/>
</g>
<g transform="translate(0.0000, 10.1982)">
<line stroke-linejoin="round" stroke-linecap="round" stroke-width="0.1000" stroke="currentColor" x1="0.0500" y1="0" x2="102.3799" y2="0"/>
</g>
<g transform="translate(0.0000, 9.1982)">
<line stroke-linejoin="round" stroke-linecap="round" stroke-width="0.1000" stroke="currentColor" x1="0.0500" y1="0" x2="102.3799" y2="0"/>
</g>
<g transform="translate(0.0000, 8.1982)">
<line stroke-linejoin="round" stroke-linecap="round" stroke-width="0.1000" stroke="currentColor" x1="0.0500" y1="0" x2="102.3799" y2="0"/>
</g>
<g transform="translate(0.0000, 23.0554)">
<line stroke-linejoin="round" stroke-linecap="round" stroke-width="0.1000" stroke="currentColor" x1="0.0500" y1="0" x2="102.3799" y2="0"/>
</g>
<g transform="translate(0.0000, 21.5554)">
<line stroke-linejoin="round" stroke-linecap="round" stroke-width="0.1000" stroke="currentColor" x1="0.0500" y1="0" x2="102.3799" y2="0"/>
</g>
<g transform="translate(0.0000, 20.0554)">
<line stroke-linejoin="round" stroke-linecap="round" stroke-width="0.1000" stroke="currentColor" x1="0.0500" y1="0" x2="102.3799" y2="0"/>
</g>
<g transform="translate(0.0000, 18.5554)">
<line stroke-linejoin="round" stroke-linecap="round" stroke-width="0.1000" stroke="currentColor" x1="0.0500" y1="0" x2="102.3799" y2="0"/>
</g>
<g transform="translate(0.0000, 17.0554)">
<line stroke-linejoin="round" stroke-linecap="round" stroke-width="0.1000" stroke="currentColor" x1="0.0500" y1="0" x2="102.3799" y2="0"/>
</g>
<g transform="translate(0.0000, 38.0183)">
<rect x="88.5909" y="-0.1000" width="2.0660" height="0.2000" ry="0.1000" fill="currentColor"/>
</g>
<g transform="translate(0.0000, 39.0183)">
<rect x="88.5909" y="-0.1000" width="2.0660" height="0.2000" ry="0.1000" fill="currentColor"/>
</g>
<g transform="translate(0.0000, 38.0183)">
<rect x="71.9081" y="-0.1000" width="3.1175" height="0.2000" ry="0.1000" fill="currentColor"/>
</g>
<g transform="translate(0.0000, 39.0183)">
<rect x="71.9081" y="-0.1000" width="3.1175" height="0.2000" ry="0.1000" fill="currentColor"/>
</g>
<g transform="translate(0.0000, 38.0183)">
<rect x="62.1571" y="-0.1000" width="3.1955" height="0.2000" ry="0.1000" fill="currentColor"/>
</g>
<g transform="translate(0.0000, 39.0183)">
<rect x="62.1571" y="-0.1000" width="1.9563" height="0.2000" ry="0.1000" fill="currentColor"/>
</g>
<g transform="translate(0.0000, 38.0183)">
<rect x="47.9162" y="-0.1000" width="3.1175" height="0.2000" ry="0.1000" fill="currentColor"/>
</g>
<g transform="translate(0.0000, 39.0183)">
<rect x="47.9162" y="-0.1000" width="3.1175" height="0.2000" ry="0.1000" fill="currentColor"/>
</g>
<g transform="translate(0.0000, 38.0183)">
<rect x="35.5132" y="-0.1000" width="3.1175" height="0.2000" ry="0.1000" fill="currentColor"/>
</g>
<g transform="translate(0.0000, 38.0183)">
<rect x="20.0164" y="-0.1000" width="1.9563" height="0.2000" ry="0.1000" fill="currentColor"/>
</g>
<g transform="translate(0.0000, 39.0183)">
<rect x="20.0164" y="-0.1000" width="1.9563" height="0.2000" ry="0.1000" fill="currentColor"/>
</g>
<g transform="translate(0.0000, 38.0183)">
<rect x="10.2278" y="-0.1000" width="1.9563" height="0.2000" ry="0.1000" fill="currentColor"/>
</g>
<g transform="translate(0.0000, 39.0183)">
<rect x="10.2278" y="-0.1000" width="1.9563" height="0.2000" ry="0.1000" fill="currentColor"/>
</g>
<g transform="translate(72.2342, 39.0183)">
<path transform="scale(0.0040, -0.0040)" d="M218 136c66 0 108 -36 108 -89c0 -89 -113 -183 -218 -183c-66 0 -108 36 -108 89c0 89 113 183 218 183z" fill="currentColor"/>
</g>
<g transform="translate(72.2342, 25.5621)">
<text font-family="serif" font-size="2.2000" text-anchor="start" fill="currentColor">
<tspan>C</tspan>
</text>
</g>
<g transform="translate(73.3954, 39.0183)">
<path transform="scale(0.0040, -0.0040)" d="M218 136c66 0 108 -36 108 -89c0 -89 -113 -183 -218 -183c-66 0 -108 36 -108 89c0 89 113 183 218 183z" fill="currentColor"/>
</g>
<g transform="translate(73.4734, 37.5183)">
<path transform="scale(0.0040, -0.0040)" d="M218 136c66 0 108 -36 108 -89c0 -89 -113 -183 -218 -183c-66 0 -108 36 -108 89c0 89 113 183 218 183z" fill="currentColor"/>
</g>
<g transform="translate(72.2342, 37.5183)">
<path transform="scale(0.0040, -0.0040)" d="M218 136c66 0 108 -36 108 -89c0 -89 -113 -183 -218 -183c-66 0 -108 36 -108 89c0 89 113 183 218 183z" fill="currentColor"/>
</g>
<g transform="translate(72.2342, 36.0183)">
<path transform="scale(0.0040, -0.0040)" d="M218 136c66 0 108 -36 108 -89c0 -89 -113 -183 -218 -183c-66 0 -108 36 -108 89c0 89 113 183 218 183z" fill="currentColor"/>
</g>
<g transform="translate(70.9743, 14.9724)">
<text font-family="serif" font-size="2.4697" text-anchor="start" fill="currentColor">
<tspan>cast</tspan>
</text>
</g>
<g transform="translate(72.2342, 11.1982)">
<path transform="scale(0.0040, -0.0040)" d="M218 136c66 0 108 -36 108 -89c0 -89 -113 -183 -218 -183c-66 0 -108 36 -108 89c0 89 113 183 218 183z" fill="currentColor"/>
</g>
<g transform="translate(75.2276, 36.5183)">
<path transform="scale(0.0040, -0.0040)" d="M0 0c0 31 25 56 56 56s56 -25 56 -56s-25 -56 -56 -56s-56 25 -56 56z" fill="currentColor"/>
</g>
<g transform="translate(73.6548, 43.5951)">
<path transform="scale(0.0022, -0.0022)" d="M176 285c-113 0 -98 -46 -124 -46c-9 0 -18 7 -18 18v223c0 11 7 20 17 20c1 0 74 -14 140 -14c65 0 141 14 142 14c11 0 18 -7 18 -14c0 -8 -93 -107 -261 -107c-11 0 -20 -10 -20 -21v-73c27 27 67 36 106 36c117 0 188 -50 188 -161c0 -97 -96 -160 -200 -160
c-84 0 -164 43 -164 119c0 32 26 58 58 58s58 -26 58 -58c0 -22 -36 -26 -36 -48c0 -35 44 -42 84 -42c55 0 71 67 71 131c0 59 -8 125 -59 125z" fill="currentColor"/>
</g>
<g transform="translate(74.0475, 43.0338)">
<circle stroke-linejoin="round" stroke-linecap="round" fill="none" stroke="currentColor" stroke-width="0.1000" r="0.7735"/>
</g>
<g transform="translate(75.2276, 39.5183)">
<path transform="scale(0.0040, -0.0040)" d="M0 0c0 31 25 56 56 56s56 -25 56 -56s-25 -56 -56 -56s-56 25 -56 56z" fill="currentColor"/>
</g>
<g transform="translate(73.6646, 29.6090)">
<path transform="scale(0.0022, -0.0022)" d="M140 501c6 0 42 -15 80 -15c39 0 74 15 83 15c10 0 17 -7 17 -14c0 -2 0 -5 -2 -7l-282 -319h152v3c0 40 39 31 75 79c23 31 23 59 39 59c8 0 16 -6 16 -17v-124h79c12 0 18 -9 18 -18s-6 -18 -18 -18h-79c2 -51 33 -96 80 -96c10 0 15 -8 15 -15s-5 -14 -15 -14
c-49 0 -96 14 -145 14s-97 -14 -146 -14c-10 0 -14 7 -14 14s4 15 14 15c47 0 79 45 81 96h-152c-29 0 -38 17 -38 28c0 13 125 127 125 327c0 11 8 21 17 21z" fill="currentColor"/>
</g>
<g transform="translate(74.1255, 29.0466)">
<circle stroke-linejoin="round" stroke-linecap="round" fill="none" stroke="currentColor" stroke-width="0.1000" r="0.7746"/>
</g>
<g transform="translate(75.2276, 37.5183)">
<path transform="scale(0.0040, -0.0040)" d="M0 0c0 31 25 56 56 56s56 -25 56 -56s-25 -56 -56 -56s-56 25 -56 56z" fill="currentColor"/>
</g>
<g transform="translate(72.4936, 41.4481)">
<path transform="scale(0.0022, -0.0022)" d="M270 266c0 -39 76 -28 76 -125c0 -94 -83 -141 -186 -141c-82 0 -160 45 -160 119c0 32 26 58 58 58s58 -26 58 -58c0 -22 -36 -26 -36 -48c0 -33 42 -42 80 -42c46 0 56 58 56 112v38c0 40 -4 69 -43 69h-74c-12 0 -18 9 -18 18s6 18 18 18h74c40 0 43 31 43 73v30
c0 50 -16 84 -61 84c-34 0 -71 -8 -71 -38c0 -19 32 -23 32 -42c0 -28 -23 -51 -51 -51s-51 23 -51 51c0 67 68 109 141 109c93 0 174 -31 174 -113c0 -112 -59 -78 -59 -121z" fill="currentColor"/>
</g>
<g transform="translate(72.8863, 40.8868)">
<circle stroke-linejoin="round" stroke-linecap="round" fill="none" stroke="currentColor" stroke-width="0.1000" r="0.7735"/>
</g>
<g transform="translate(75.2276, 38.5183)">
<path transform="scale(0.0040, -0.0040)" d="M0 0c0 31 25 56 56 56s56 -25 56 -56s-25 -56 -56 -56s-56 25 -56 56z" fill="currentColor"/>
</g>
<g transform="translate(72.4595, 31.7561)">
<path transform="scale(0.0022, -0.0022)" d="M234 0c-91 0 -93 69 -145 69c-29 0 -57 -21 -60 -56c-1 -9 -7 -13 -14 -13s-15 5 -15 14c0 154 232 168 232 341c0 56 -13 116 -61 116c-33 0 -66 -14 -66 -44c0 -24 31 -37 31 -61c0 -34 -27 -61 -61 -61s-61 27 -61 61c0 79 74 134 157 134c98 0 190 -55 190 -145
c0 -143 -134 -156 -232 -206h7c86 0 113 -61 170 -61c51 0 39 42 59 42c7 0 15 -5 15 -14c0 -24 -46 -116 -146 -116z" fill="currentColor"/>
</g>
<g transform="translate(72.8863, 31.1948)">
<circle stroke-linejoin="round" stroke-linecap="round" fill="none" stroke="currentColor" stroke-width="0.1000" r="0.7735"/>
</g>
<g transform="translate(73.4734, 10.1982)">
<rect x="-0.0650" y="-2.1943" width="0.1300" height="3.0082" ry="0.0400" fill="currentColor"/>
</g>
<g transform="translate(72.4936, 27.4598)">
<path transform="scale(0.0022, -0.0022)" d="M129 129h130c0 -52 32 -100 81 -100c10 0 14 -8 14 -15s-4 -14 -14 -14c-49 0 -97 14 -146 14s-96 -14 -145 -14c-10 0 -15 7 -15 14s5 15 15 15c49 0 80 48 80 100zM194 486c22 0 41 15 49 15s16 -9 16 -21v-351h-130v215c0 15 -11 23 -20 23c-5 0 -9 -2 -11 -7
l-66 -127c-4 -7 -9 -9 -15 -9c-9 0 -19 7 -19 17c0 3 0 6 2 9l129 250c7 14 36 -14 65 -14z" fill="currentColor"/>
</g>
<g transform="translate(72.8863, 26.8828)">
<circle stroke-linejoin="round" stroke-linecap="round" fill="none" stroke="currentColor" stroke-width="0.1000" r="0.7892"/>
</g>
<g transform="translate(73.4734, 35.0183)">
<rect x="-0.0650" y="-2.5000" width="0.1300" height="6.3139" ry="0.0400" fill="currentColor"/>
</g>
<g transform="translate(75.2276, 35.5183)">
<path transform="scale(0.0040, -0.0040)" d="M0 0c0 31 25 56 56 56s56 -25 56 -56s-25 -56 -56 -56s-56 25 -56 56z" fill="currentColor"/>
</g>
<g transform="translate(62.4832, 26.0348)">
<text font-family="serif" font-size="2.2000" text-anchor="start" fill="currentColor">
<tspan>G</tspan>
</text>
</g>
<g transform="translate(63.7224, 38.0183)">
<path transform="scale(0.0040, -0.0040)" d="M218 136c66 0 108 -36 108 -89c0 -89 -113 -183 -218 -183c-66 0 -108 36 -108 89c0 89 113 183 218 183z" fill="currentColor"/>
</g>
<g transform="translate(63.7224, 36.5183)">
<path transform="scale(0.0040, -0.0040)" d="M218 136c66 0 108 -36 108 -89c0 -89 -113 -183 -218 -183c-66 0 -108 36 -108 89c0 89 113 183 218 183z" fill="currentColor"/>
</g>
<g transform="translate(62.4832, 39.0183)">
<path transform="scale(0.0040, -0.0040)" d="M218 136c66 0 108 -36 108 -89c0 -89 -113 -183 -218 -183c-66 0 -108 36 -108 89c0 89 113 183 218 183z" fill="currentColor"/>
</g>
<g transform="translate(62.4832, 38.0183)">
<path transform="scale(0.0040, -0.0040)" d="M218 136c66 0 108 -36 108 -89c0 -89 -113 -183 -218 -183c-66 0 -108 36 -108 89c0 89 113 183 218 183z" fill="currentColor"/>
</g>
<g transform="translate(62.4832, 36.5183)">
<path transform="scale(0.0040, -0.0040)" d="M218 136c66 0 108 -36 108 -89c0 -89 -113 -183 -218 -183c-66 0 -108 36 -108 89c0 89 113 183 218 183z" fill="currentColor"/>
</g>
<g transform="translate(62.1793, 14.9724)">
<text font-family="serif" font-size="2.4697" text-anchor="start" fill="currentColor">
<tspan>to</tspan>
</text>
</g>
<g transform="translate(62.4832, 11.6982)">
<path transform="scale(0.0040, -0.0040)" d="M218 136c66 0 108 -36 108 -89c0 -89 -113 -183 -218 -183c-66 0 -108 36 -108 89c0 89 113 183 218 183z" fill="currentColor"/>
</g>
<g transform="translate(57.2907, 7.2382)">
<path transform="scale(0.0040, -0.0040)" d="M0 0v-250h-16v250h16zM0 0c0 -197 207 -336 207 -533c0 -71 -15 -141 -41 -207c-5 -8 -13 -12 -20 -12c-13 0 -26 11 -23 27c26 61 42 126 42 192c0 103 -94 208 -165 283v250z" fill="currentColor"/>
</g>
<g transform="translate(57.2257, 10.1982)">
<rect x="-0.0650" y="-3.0000" width="0.1300" height="3.3139" ry="0.0400" fill="currentColor"/>
</g>
<g transform="translate(53.1902, 14.9724)">
<text font-family="serif" font-size="2.4697" text-anchor="start" fill="currentColor">
<tspan>wrong,</tspan>
</text>
</g>
<g transform="translate(55.9865, 10.6982)">
<path transform="scale(0.0040, -0.0040)" d="M218 136c66 0 108 -36 108 -89c0 -89 -113 -183 -218 -183c-66 0 -108 36 -108 89c0 89 113 183 218 183z" fill="currentColor"/>
</g>
<g transform="translate(47.0923, 36.0183)">
<path transform="scale(0.0040, -0.0040)" d="M27 41l-1 -66v-11c0 -22 1 -44 4 -66c45 38 93 80 93 139c0 33 -14 67 -43 67c-31 0 -52 -30 -53 -63zM-15 -138l-12 595c8 5 18 8 27 8s19 -3 27 -8l-7 -345c25 21 58 34 91 34c52 0 89 -48 89 -102c0 -80 -86 -117 -147 -169c-15 -13 -24 -38 -45 -38
c-13 0 -23 11 -23 25z" fill="currentColor"/>
</g>
<g transform="translate(73.4084, 8.0082)">
<polygon stroke-linejoin="round" stroke-linecap="round" stroke-width="0.0800" fill="currentColor" stroke="currentColor" points="9.2281 -0.8200 9.2281 -0.4200 0.0400 0.2000 0.0400 -0.2000"/>
</g>
<g transform="translate(65.4766, 35.5183)">
<path transform="scale(0.0040, -0.0040)" d="M0 0c0 31 25 56 56 56s56 -25 56 -56s-25 -56 -56 -56s-56 25 -56 56z" fill="currentColor"/>
</g>
<g transform="translate(65.4766, 38.5183)">
<path transform="scale(0.0040, -0.0040)" d="M0 0c0 31 25 56 56 56s56 -25 56 -56s-25 -56 -56 -56s-56 25 -56 56z" fill="currentColor"/>
</g>
<g transform="translate(63.9135, 27.8806)">
<path transform="scale(0.0022, -0.0022)" d="M140 501c6 0 42 -15 80 -15c39 0 74 15 83 15c10 0 17 -7 17 -14c0 -2 0 -5 -2 -7l-282 -319h152v3c0 40 39 31 75 79c23 31 23 59 39 59c8 0 16 -6 16 -17v-124h79c12 0 18 -9 18 -18s-6 -18 -18 -18h-79c2 -51 33 -96 80 -96c10 0 15 -8 15 -15s-5 -14 -15 -14
c-49 0 -96 14 -145 14s-97 -14 -146 -14c-10 0 -14 7 -14 14s4 15 14 15c47 0 79 45 81 96h-152c-29 0 -38 17 -38 28c0 13 125 127 125 327c0 11 8 21 17 21z" fill="currentColor"/>
</g>
<g transform="translate(64.3745, 27.3182)">
<circle stroke-linejoin="round" stroke-linecap="round" fill="none" stroke="currentColor" stroke-width="0.1000" r="0.7746"/>
</g>
<g transform="translate(65.4766, 36.5183)">
<path transform="scale(0.0040, -0.0040)" d="M0 0c0 31 25 56 56 56s56 -25 56 -56s-25 -56 -56 -56s-56 25 -56 56z" fill="currentColor"/>
</g>
<g transform="translate(62.7426, 43.5951)">
<path transform="scale(0.0022, -0.0022)" d="M270 266c0 -39 76 -28 76 -125c0 -94 -83 -141 -186 -141c-82 0 -160 45 -160 119c0 32 26 58 58 58s58 -26 58 -58c0 -22 -36 -26 -36 -48c0 -33 42 -42 80 -42c46 0 56 58 56 112v38c0 40 -4 69 -43 69h-74c-12 0 -18 9 -18 18s6 18 18 18h74c40 0 43 31 43 73v30
c0 50 -16 84 -61 84c-34 0 -71 -8 -71 -38c0 -19 32 -23 32 -42c0 -28 -23 -51 -51 -51s-51 23 -51 51c0 67 68 109 141 109c93 0 174 -31 174 -113c0 -112 -59 -78 -59 -121z" fill="currentColor"/>
</g>
<g transform="translate(63.1353, 43.0338)">
<circle stroke-linejoin="round" stroke-linecap="round" fill="none" stroke="currentColor" stroke-width="0.1000" r="0.7735"/>
</g>
<g transform="translate(65.4766, 39.5183)">
<path transform="scale(0.0040, -0.0040)" d="M0 0c0 31 25 56 56 56s56 -25 56 -56s-25 -56 -56 -56s-56 25 -56 56z" fill="currentColor"/>
</g>
<g transform="translate(62.7085, 41.4481)">
<path transform="scale(0.0022, -0.0022)" d="M234 0c-91 0 -93 69 -145 69c-29 0 -57 -21 -60 -56c-1 -9 -7 -13 -14 -13s-15 5 -15 14c0 154 232 168 232 341c0 56 -13 116 -61 116c-33 0 -66 -14 -66 -44c0 -24 31 -37 31 -61c0 -34 -27 -61 -61 -61s-61 27 -61 61c0 79 74 134 157 134c98 0 190 -55 190 -145
c0 -143 -134 -156 -232 -206h7c86 0 113 -61 170 -61c51 0 39 42 59 42c7 0 15 -5 15 -14c0 -24 -46 -116 -146 -116z" fill="currentColor"/>
</g>
<g transform="translate(63.1353, 40.8868)">
<circle stroke-linejoin="round" stroke-linecap="round" fill="none" stroke="currentColor" stroke-width="0.1000" r="0.7735"/>
</g>
<g transform="translate(65.4766, 37.5183)">
<path transform="scale(0.0040, -0.0040)" d="M0 0c0 31 25 56 56 56s56 -25 56 -56s-25 -56 -56 -56s-56 25 -56 56z" fill="currentColor"/>
</g>
<g transform="translate(62.7426, 30.0590)">
<path transform="scale(0.0022, -0.0022)" d="M129 129h130c0 -52 32 -100 81 -100c10 0 14 -8 14 -15s-4 -14 -14 -14c-49 0 -97 14 -146 14s-96 -14 -145 -14c-10 0 -15 7 -15 14s5 15 15 15c49 0 80 48 80 100zM194 486c22 0 41 15 49 15s16 -9 16 -21v-351h-130v215c0 15 -11 23 -20 23c-5 0 -9 -2 -11 -7
l-66 -127c-4 -7 -9 -9 -15 -9c-9 0 -19 7 -19 17c0 3 0 6 2 9l129 250c7 14 36 -14 65 -14z" fill="currentColor"/>
</g>
<g transform="translate(63.1353, 29.4821)">
<circle stroke-linejoin="round" stroke-linecap="round" fill="none" stroke="currentColor" stroke-width="0.1000" r="0.7892"/>
</g>
<g transform="translate(63.7224, 35.0183)">
<rect x="-0.0650" y="-2.0000" width="0.1300" height="5.8139" ry="0.0400" fill="currentColor"/>
</g>
<g transform="translate(63.9818, 32.2061)">
<path transform="scale(0.0022, -0.0022)" d="M176 285c-113 0 -98 -46 -124 -46c-9 0 -18 7 -18 18v223c0 11 7 20 17 20c1 0 74 -14 140 -14c65 0 141 14 142 14c11 0 18 -7 18 -14c0 -8 -93 -107 -261 -107c-11 0 -20 -10 -20 -21v-73c27 27 67 36 106 36c117 0 188 -50 188 -161c0 -97 -96 -160 -200 -160
c-84 0 -164 43 -164 119c0 32 26 58 58 58s58 -26 58 -58c0 -22 -36 -26 -36 -48c0 -35 44 -42 84 -42c55 0 71 67 71 131c0 59 -8 125 -59 125z" fill="currentColor"/>
</g>
<g transform="translate(64.3745, 31.6448)">
<circle stroke-linejoin="round" stroke-linecap="round" fill="none" stroke="currentColor" stroke-width="0.1000" r="0.7735"/>
</g>
<g transform="translate(63.7224, 10.1982)">
<rect x="-0.0650" y="-2.0000" width="0.1300" height="3.3139" ry="0.0400" fill="currentColor"/>
</g>
<g transform="translate(64.2374, 11.6982)">
<path transform="scale(0.0040, -0.0040)" d="M0 0c0 31 25 56 56 56s56 -25 56 -56s-25 -56 -56 -56s-56 25 -56 56z" fill="currentColor"/>
</g>
<g transform="translate(89.2313, 41.9481)">
<path transform="scale(0.0022, -0.0022)" d="M176 285c-113 0 -98 -46 -124 -46c-9 0 -18 7 -18 18v223c0 11 7 20 17 20c1 0 74 -14 140 -14c65 0 141 14 142 14c11 0 18 -7 18 -14c0 -8 -93 -107 -261 -107c-11 0 -20 -10 -20 -21v-73c27 27 67 36 106 36c117 0 188 -50 188 -161c0 -97 -96 -160 -200 -160
c-84 0 -164 43 -164 119c0 32 26 58 58 58s58 -26 58 -58c0 -22 -36 -26 -36 -48c0 -35 44 -42 84 -42c55 0 71 67 71 131c0 59 -8 125 -59 125z" fill="currentColor"/>
</g>
<g transform="translate(89.6240, 41.3868)">
<circle stroke-linejoin="round" stroke-linecap="round" fill="none" stroke="currentColor" stroke-width="0.1000" r="0.7735"/>
</g>
<g transform="translate(92.0750, 38.5183)">
<path transform="scale(0.0040, -0.0040)" d="M0 0c0 31 25 56 56 56s56 -25 56 -56s-25 -56 -56 -56s-56 25 -56 56z" fill="currentColor"/>
</g>
<g transform="translate(90.4754, 29.6090)">
<path transform="scale(0.0022, -0.0022)" d="M140 501c6 0 42 -15 80 -15c39 0 74 15 83 15c10 0 17 -7 17 -14c0 -2 0 -5 -2 -7l-282 -319h152v3c0 40 39 31 75 79c23 31 23 59 39 59c8 0 16 -6 16 -17v-124h79c12 0 18 -9 18 -18s-6 -18 -18 -18h-79c2 -51 33 -96 80 -96c10 0 15 -8 15 -15s-5 -14 -15 -14
c-49 0 -96 14 -145 14s-97 -14 -146 -14c-10 0 -14 7 -14 14s4 15 14 15c47 0 79 45 81 96h-152c-29 0 -38 17 -38 28c0 13 125 127 125 327c0 11 8 21 17 21z" fill="currentColor"/>
</g>
<g transform="translate(90.9363, 29.0466)">
<circle stroke-linejoin="round" stroke-linecap="round" fill="none" stroke="currentColor" stroke-width="0.1000" r="0.7746"/>
</g>
<g transform="translate(92.0750, 37.5183)">
<path transform="scale(0.0040, -0.0040)" d="M0 0c0 31 25 56 56 56s56 -25 56 -56s-25 -56 -56 -56s-56 25 -56 56z" fill="currentColor"/>
</g>
<g transform="translate(89.2313, 44.0951)">
<path transform="scale(0.0022, -0.0022)" d="M270 266c0 -39 76 -28 76 -125c0 -94 -83 -141 -186 -141c-82 0 -160 45 -160 119c0 32 26 58 58 58s58 -26 58 -58c0 -22 -36 -26 -36 -48c0 -33 42 -42 80 -42c46 0 56 58 56 112v38c0 40 -4 69 -43 69h-74c-12 0 -18 9 -18 18s6 18 18 18h74c40 0 43 31 43 73v30
c0 50 -16 84 -61 84c-34 0 -71 -8 -71 -38c0 -19 32 -23 32 -42c0 -28 -23 -51 -51 -51s-51 23 -51 51c0 67 68 109 141 109c93 0 174 -31 174 -113c0 -112 -59 -78 -59 -121z" fill="currentColor"/>
</g>
<g transform="translate(89.6240, 43.5338)">
<circle stroke-linejoin="round" stroke-linecap="round" fill="none" stroke="currentColor" stroke-width="0.1000" r="0.7735"/>
</g>
<g transform="translate(92.0750, 39.5183)">
<path transform="scale(0.0040, -0.0040)" d="M0 0c0 31 25 56 56 56s56 -25 56 -56s-25 -56 -56 -56s-56 25 -56 56z" fill="currentColor"/>
</g>
<g transform="translate(20.3425, 13.0082)">
<polygon stroke-linejoin="round" stroke-linecap="round" stroke-width="0.0800" fill="currentColor" stroke="currentColor" points="9.2281 -0.8200 9.2281 -0.4200 0.0400 0.2000 0.0400 -0.2000"/>
</g>
<g transform="translate(89.1972, 31.7561)">
<path transform="scale(0.0022, -0.0022)" d="M234 0c-91 0 -93 69 -145 69c-29 0 -57 -21 -60 -56c-1 -9 -7 -13 -14 -13s-15 5 -15 14c0 154 232 168 232 341c0 56 -13 116 -61 116c-33 0 -66 -14 -66 -44c0 -24 31 -37 31 -61c0 -34 -27 -61 -61 -61s-61 27 -61 61c0 79 74 134 157 134c98 0 190 -55 190 -145
c0 -143 -134 -156 -232 -206h7c86 0 113 -61 170 -61c51 0 39 42 59 42c7 0 15 -5 15 -14c0 -24 -46 -116 -146 -116z" fill="currentColor"/>
</g>
<g transform="translate(89.6240, 31.1948)">
<circle stroke-linejoin="round" stroke-linecap="round" fill="none" stroke="currentColor" stroke-width="0.1000" r="0.7735"/>
</g>
<g transform="translate(81.3723, 10.1982)">
<path transform="scale(0.0040, -0.0040)" d="M218 136c66 0 108 -36 108 -89c0 -89 -113 -183 -218 -183c-66 0 -108 36 -108 89c0 89 113 183 218 183z" fill="currentColor"/>
</g>
<g transform="translate(87.7802, 14.9724)">
<text font-family="serif" font-size="2.4697" text-anchor="start" fill="currentColor">
<tspan>dis-</tspan>
</text>
</g>
<g transform="translate(88.9353, 11.1982)">
<path transform="scale(0.0040, -0.0040)" d="M314 65c0 23 -19 41 -42 41c-39 0 -204 -110 -231 -143c-7 -8 -10 -18 -10 -28c0 -23 19 -41 42 -41c39 0 203 110 230 143c7 8 11 18 11 28zM262 136c41 0 82 -14 82 -71c0 -26 -16 -112 -74 -151c-25 -17 -87 -50 -187 -50c-41 0 -83 14 -83 71c0 26 16 112 74 151
c25 17 88 50 188 50z" fill="currentColor"/>
</g>
<g transform="translate(82.6115, 10.1982)">
<rect x="-0.0650" y="-2.8057" width="0.1300" height="2.6195" ry="0.0400" fill="currentColor"/>
</g>
<g transform="translate(80.6075, 14.9724)">
<text font-family="serif" font-size="2.4697" text-anchor="start" fill="currentColor">
<tspan>off</tspan>
</text>
</g>
<g transform="translate(88.9353, 36.0183)">
<path transform="scale(0.0040, -0.0040)" d="M314 65c0 23 -19 41 -42 41c-39 0 -204 -110 -231 -143c-7 -8 -10 -18 -10 -28c0 -23 19 -41 42 -41c39 0 203 110 230 143c7 8 11 18 11 28zM262 136c41 0 82 -14 82 -71c0 -26 -16 -112 -74 -151c-25 -17 -87 -50 -187 -50c-41 0 -83 14 -83 71c0 26 16 112 74 151
c25 17 88 50 188 50z" fill="currentColor"/>
</g>
<g transform="translate(78.0425, 10.1982)">
<rect x="-0.0650" y="-2.5000" width="0.1300" height="2.8139" ry="0.0400" fill="currentColor"/>
</g>
<g transform="translate(75.9531, 14.9724)">
<text font-family="serif" font-size="2.4697" text-anchor="start" fill="currentColor">
<tspan>me</tspan>
</text>
</g>
<g transform="translate(76.8033, 10.6982)">
<path transform="scale(0.0040, -0.0040)" d="M218 136c66 0 108 -36 108 -89c0 -89 -113 -183 -218 -183c-66 0 -108 36 -108 89c0 89 113 183 218 183z" fill="currentColor"/>
</g>
<g transform="translate(71.0842, 36.0183)">
<path transform="scale(0.0040, -0.0040)" d="M27 41l-1 -66v-11c0 -22 1 -44 4 -66c45 38 93 80 93 139c0 33 -14 67 -43 67c-31 0 -52 -30 -53 -63zM-15 -138l-12 595c8 5 18 8 27 8s19 -3 27 -8l-7 -345c25 21 58 34 91 34c52 0 89 -48 89 -102c0 -80 -86 -117 -147 -169c-15 -13 -24 -38 -45 -38
c-13 0 -23 11 -23 25z" fill="currentColor"/>
</g>
<g transform="translate(92.0750, 36.5183)">
<path transform="scale(0.0040, -0.0040)" d="M0 0c0 31 25 56 56 56s56 -25 56 -56s-25 -56 -56 -56s-56 25 -56 56z" fill="currentColor"/>
</g>
<g transform="translate(89.2313, 27.4598)">
<path transform="scale(0.0022, -0.0022)" d="M129 129h130c0 -52 32 -100 81 -100c10 0 14 -8 14 -15s-4 -14 -14 -14c-49 0 -97 14 -146 14s-96 -14 -145 -14c-10 0 -15 7 -15 14s5 15 15 15c49 0 80 48 80 100zM194 486c22 0 41 15 49 15s16 -9 16 -21v-351h-130v215c0 15 -11 23 -20 23c-5 0 -9 -2 -11 -7
l-66 -127c-4 -7 -9 -9 -15 -9c-9 0 -19 7 -19 17c0 3 0 6 2 9l129 250c7 14 36 -14 65 -14z" fill="currentColor"/>
</g>
<g transform="translate(89.6240, 26.8828)">
<circle stroke-linejoin="round" stroke-linecap="round" fill="none" stroke="currentColor" stroke-width="0.1000" r="0.7892"/>
</g>
<g transform="translate(90.2476, 35.0183)">
<rect x="-0.0650" y="-2.5000" width="0.1300" height="6.7410" ry="0.0400" fill="currentColor"/>
</g>
<g transform="translate(92.0750, 35.5183)">
<path transform="scale(0.0040, -0.0040)" d="M0 0c0 31 25 56 56 56s56 -25 56 -56s-25 -56 -56 -56s-56 25 -56 56z" fill="currentColor"/>
</g>
<g transform="translate(90.2476, 10.1982)">
<rect x="-0.0650" y="-2.5000" width="0.1300" height="3.2410" ry="0.0400" fill="currentColor"/>
</g>
<g transform="translate(90.7626, 10.6982)">
<path transform="scale(0.0040, -0.0040)" d="M0 0c0 31 25 56 56 56s56 -25 56 -56s-25 -56 -56 -56s-56 25 -56 56z" fill="currentColor"/>
</g>
<g transform="translate(88.9353, 25.5621)">
<text font-family="serif" font-size="2.2000" text-anchor="start" fill="currentColor">
<tspan>O</tspan>
</text>
</g>
<g transform="translate(88.9353, 38.5183)">
<path transform="scale(0.0040, -0.0040)" d="M314 65c0 23 -19 41 -42 41c-39 0 -204 -110 -231 -143c-7 -8 -10 -18 -10 -28c0 -23 19 -41 42 -41c39 0 203 110 230 143c7 8 11 18 11 28zM262 136c41 0 82 -14 82 -71c0 -26 -16 -112 -74 -151c-25 -17 -87 -50 -187 -50c-41 0 -83 14 -83 71c0 26 16 112 74 151
c25 17 88 50 188 50z" fill="currentColor"/>
</g>
<g transform="translate(90.2476, 37.5183)">
<path transform="scale(0.0040, -0.0040)" d="M314 65c0 23 -19 41 -42 41c-39 0 -204 -110 -231 -143c-7 -8 -10 -18 -10 -28c0 -23 19 -41 42 -41c39 0 203 110 230 143c7 8 11 18 11 28zM262 136c41 0 82 -14 82 -71c0 -26 -16 -112 -74 -151c-25 -17 -87 -50 -187 -50c-41 0 -83 14 -83 71c0 26 16 112 74 151
c25 17 88 50 188 50z" fill="currentColor"/>
</g>
<g transform="translate(88.9353, 39.5183)">
<path transform="scale(0.0040, -0.0040)" d="M314 65c0 23 -19 41 -42 41c-39 0 -204 -110 -231 -143c-7 -8 -10 -18 -10 -28c0 -23 19 -41 42 -41c39 0 203 110 230 143c7 8 11 18 11 28zM262 136c41 0 82 -14 82 -71c0 -26 -16 -112 -74 -151c-25 -17 -87 -50 -187 -50c-41 0 -83 14 -83 71c0 26 16 112 74 151
c25 17 88 50 188 50z" fill="currentColor"/>
</g>
<g transform="translate(88.9353, 37.5183)">
<path transform="scale(0.0040, -0.0040)" d="M314 65c0 23 -19 41 -42 41c-39 0 -204 -110 -231 -143c-7 -8 -10 -18 -10 -28c0 -23 19 -41 42 -41c39 0 203 110 230 143c7 8 11 18 11 28zM262 136c41 0 82 -14 82 -71c0 -26 -16 -112 -74 -151c-25 -17 -87 -50 -187 -50c-41 0 -83 14 -83 71c0 26 16 112 74 151
c25 17 88 50 188 50z" fill="currentColor"/>
</g>
<g transform="translate(20.3425, 36.0183)">
<path transform="scale(0.0040, -0.0040)" d="M218 136c66 0 108 -36 108 -89c0 -89 -113 -183 -218 -183c-66 0 -108 36 -108 89c0 89 113 183 218 183z" fill="currentColor"/>
</g>
<g transform="translate(23.3359, 35.5183)">
<path transform="scale(0.0040, -0.0040)" d="M0 0c0 31 25 56 56 56s56 -25 56 -56s-25 -56 -56 -56s-56 25 -56 56z" fill="currentColor"/>
</g>
<g transform="translate(20.4075, 10.1982)">
<rect x="-0.0650" y="0.1861" width="0.1300" height="2.6195" ry="0.0400" fill="currentColor"/>
</g>
<g transform="translate(20.3425, 25.5621)">
<text font-family="serif" font-size="2.2000" text-anchor="start" fill="currentColor">
<tspan>O</tspan>
</text>
</g>
<g transform="translate(20.3425, 38.5183)">
<path transform="scale(0.0040, -0.0040)" d="M218 136c66 0 108 -36 108 -89c0 -89 -113 -183 -218 -183c-66 0 -108 36 -108 89c0 89 113 183 218 183z" fill="currentColor"/>
</g>
<g transform="translate(21.5817, 37.5183)">
<path transform="scale(0.0040, -0.0040)" d="M218 136c66 0 108 -36 108 -89c0 -89 -113 -183 -218 -183c-66 0 -108 36 -108 89c0 89 113 183 218 183z" fill="currentColor"/>
</g>
<g transform="translate(20.3425, 39.5183)">
<path transform="scale(0.0040, -0.0040)" d="M218 136c66 0 108 -36 108 -89c0 -89 -113 -183 -218 -183c-66 0 -108 36 -108 89c0 89 113 183 218 183z" fill="currentColor"/>
</g>
<g transform="translate(20.3425, 37.5183)">
<path transform="scale(0.0040, -0.0040)" d="M218 136c66 0 108 -36 108 -89c0 -89 -113 -183 -218 -183c-66 0 -108 36 -108 89c0 89 113 183 218 183z" fill="currentColor"/>
</g>
<g transform="translate(21.5817, 35.0183)">
<rect x="-0.0650" y="-2.5000" width="0.1300" height="6.8139" ry="0.0400" fill="currentColor"/>
</g>
<g transform="translate(19.3216, 14.9724)">
<text font-family="serif" font-size="2.4697" text-anchor="start" fill="currentColor">
<tspan>las,</tspan>
</text>
</g>
<g transform="translate(20.3425, 10.1982)">
<path transform="scale(0.0040, -0.0040)" d="M218 136c66 0 108 -36 108 -89c0 -89 -113 -183 -218 -183c-66 0 -108 36 -108 89c0 89 113 183 218 183z" fill="currentColor"/>
</g>
<g transform="translate(20.6020, 41.9481)">
<path transform="scale(0.0022, -0.0022)" d="M176 285c-113 0 -98 -46 -124 -46c-9 0 -18 7 -18 18v223c0 11 7 20 17 20c1 0 74 -14 140 -14c65 0 141 14 142 14c11 0 18 -7 18 -14c0 -8 -93 -107 -261 -107c-11 0 -20 -10 -20 -21v-73c27 27 67 36 106 36c117 0 188 -50 188 -161c0 -97 -96 -160 -200 -160
c-84 0 -164 43 -164 119c0 32 26 58 58 58s58 -26 58 -58c0 -22 -36 -26 -36 -48c0 -35 44 -42 84 -42c55 0 71 67 71 131c0 59 -8 125 -59 125z" fill="currentColor"/>
</g>
<g transform="translate(20.9946, 41.3868)">
<circle stroke-linejoin="round" stroke-linecap="round" fill="none" stroke="currentColor" stroke-width="0.1000" r="0.7735"/>
</g>
<g transform="translate(24.9766, 10.1982)">
<rect x="-0.0650" y="-0.3139" width="0.1300" height="2.8139" ry="0.0400" fill="currentColor"/>
</g>
<g transform="translate(23.9931, 14.9724)">
<text font-family="serif" font-size="2.4697" text-anchor="start" fill="currentColor">
<tspan>my</tspan>
</text>
</g>
<g transform="translate(24.9116, 9.6982)">
<path transform="scale(0.0040, -0.0040)" d="M218 136c66 0 108 -36 108 -89c0 -89 -113 -183 -218 -183c-66 0 -108 36 -108 89c0 89 113 183 218 183z" fill="currentColor"/>
</g>
<g transform="translate(23.3359, 38.5183)">
<path transform="scale(0.0040, -0.0040)" d="M0 0c0 31 25 56 56 56s56 -25 56 -56s-25 -56 -56 -56s-56 25 -56 56z" fill="currentColor"/>
</g>
<g transform="translate(21.7729, 29.6090)">
<path transform="scale(0.0022, -0.0022)" d="M140 501c6 0 42 -15 80 -15c39 0 74 15 83 15c10 0 17 -7 17 -14c0 -2 0 -5 -2 -7l-282 -319h152v3c0 40 39 31 75 79c23 31 23 59 39 59c8 0 16 -6 16 -17v-124h79c12 0 18 -9 18 -18s-6 -18 -18 -18h-79c2 -51 33 -96 80 -96c10 0 15 -8 15 -15s-5 -14 -15 -14
c-49 0 -96 14 -145 14s-97 -14 -146 -14c-10 0 -14 7 -14 14s4 15 14 15c47 0 79 45 81 96h-152c-29 0 -38 17 -38 28c0 13 125 127 125 327c0 11 8 21 17 21z" fill="currentColor"/>
</g>
<g transform="translate(22.2338, 29.0466)">
<circle stroke-linejoin="round" stroke-linecap="round" fill="none" stroke="currentColor" stroke-width="0.1000" r="0.7746"/>
</g>
<g transform="translate(23.3359, 37.5183)">
<path transform="scale(0.0040, -0.0040)" d="M0 0c0 31 25 56 56 56s56 -25 56 -56s-25 -56 -56 -56s-56 25 -56 56z" fill="currentColor"/>
</g>
<g transform="translate(20.6020, 44.0951)">
<path transform="scale(0.0022, -0.0022)" d="M270 266c0 -39 76 -28 76 -125c0 -94 -83 -141 -186 -141c-82 0 -160 45 -160 119c0 32 26 58 58 58s58 -26 58 -58c0 -22 -36 -26 -36 -48c0 -33 42 -42 80 -42c46 0 56 58 56 112v38c0 40 -4 69 -43 69h-74c-12 0 -18 9 -18 18s6 18 18 18h74c40 0 43 31 43 73v30
c0 50 -16 84 -61 84c-34 0 -71 -8 -71 -38c0 -19 32 -23 32 -42c0 -28 -23 -51 -51 -51s-51 23 -51 51c0 67 68 109 141 109c93 0 174 -31 174 -113c0 -112 -59 -78 -59 -121z" fill="currentColor"/>
</g>
<g transform="translate(20.9946, 43.5338)">
<circle stroke-linejoin="round" stroke-linecap="round" fill="none" stroke="currentColor" stroke-width="0.1000" r="0.7735"/>
</g>
<g transform="translate(23.3359, 39.5183)">
<path transform="scale(0.0040, -0.0040)" d="M0 0c0 31 25 56 56 56s56 -25 56 -56s-25 -56 -56 -56s-56 25 -56 56z" fill="currentColor"/>
</g>
<g transform="translate(20.5678, 31.7561)">
<path transform="scale(0.0022, -0.0022)" d="M234 0c-91 0 -93 69 -145 69c-29 0 -57 -21 -60 -56c-1 -9 -7 -13 -14 -13s-15 5 -15 14c0 154 232 168 232 341c0 56 -13 116 -61 116c-33 0 -66 -14 -66 -44c0 -24 31 -37 31 -61c0 -34 -27 -61 -61 -61s-61 27 -61 61c0 79 74 134 157 134c98 0 190 -55 190 -145
c0 -143 -134 -156 -232 -206h7c86 0 113 -61 170 -61c51 0 39 42 59 42c7 0 15 -5 15 -14c0 -24 -46 -116 -146 -116z" fill="currentColor"/>
</g>
<g transform="translate(20.9946, 31.1948)">
<circle stroke-linejoin="round" stroke-linecap="round" fill="none" stroke="currentColor" stroke-width="0.1000" r="0.7735"/>
</g>
<g transform="translate(23.3359, 36.5183)">
<path transform="scale(0.0040, -0.0040)" d="M0 0c0 31 25 56 56 56s56 -25 56 -56s-25 -56 -56 -56s-56 25 -56 56z" fill="currentColor"/>
</g>
<g transform="translate(20.6020, 27.4598)">
<path transform="scale(0.0022, -0.0022)" d="M129 129h130c0 -52 32 -100 81 -100c10 0 14 -8 14 -15s-4 -14 -14 -14c-49 0 -97 14 -146 14s-96 -14 -145 -14c-10 0 -15 7 -15 14s5 15 15 15c49 0 80 48 80 100zM194 486c22 0 41 15 49 15s16 -9 16 -21v-351h-130v215c0 15 -11 23 -20 23c-5 0 -9 -2 -11 -7
l-66 -127c-4 -7 -9 -9 -15 -9c-9 0 -19 7 -19 17c0 3 0 6 2 9l129 250c7 14 36 -14 65 -14z" fill="currentColor"/>
</g>
<g transform="translate(20.9946, 26.8828)">
<circle stroke-linejoin="round" stroke-linecap="round" fill="none" stroke="currentColor" stroke-width="0.1000" r="0.7892"/>
</g>
<g transform="translate(7.3412, 10.1982)">
<path transform="scale(0.0040, -0.0040)" d="M170 259c-51 0 -53 -43 -53 -100v-18v-18c0 -57 2 -100 53 -100c57 0 61 51 61 118s-4 118 -61 118zM117 266c15 10 33 16 53 16c101 0 170 -46 170 -141s-69 -141 -170 -141c-112 0 -170 124 -170 250c0 128 72 250 190 250c70 0 136 -39 136 -103
c0 -36 -29 -66 -65 -66s-66 30 -66 66c0 24 40 25 40 49c0 20 -23 31 -45 31c-66 0 -75 -65 -75 -139c0 -24 2 -48 2 -72z" fill="currentColor"/>
</g>
<g transform="translate(7.2900, 12.1982)">
<path transform="scale(0.0040, -0.0040)" d="M261 287c25 30 44 64 44 103c0 54 -55 87 -114 87c-46 0 -73 -36 -73 -71c0 -21 10 -42 31 -54zM292 269c23 -13 80 -54 80 -125c0 -73 -66 -144 -189 -144c-94 0 -183 54 -183 140c0 50 36 87 72 123c-37 28 -55 66 -55 103c0 68 60 134 174 134c80 0 157 -39 157 -110
c0 -46 -25 -86 -56 -121zM103 244c-31 -30 -59 -61 -59 -104c0 -69 66 -117 139 -117c54 0 86 42 86 83c0 24 -10 48 -35 62z" fill="currentColor"/>
</g>
<g transform="translate(4.4200, 35.0183)">
<path transform="scale(0.0040, -0.0040)" d="M27 41l-1 -66v-11c0 -22 1 -44 4 -66c45 38 93 80 93 139c0 33 -14 67 -43 67c-31 0 -52 -30 -53 -63zM-15 -138l-12 595c8 5 18 8 27 8s19 -3 27 -8l-7 -345c25 21 58 34 91 34c52 0 89 -48 89 -102c0 -80 -86 -117 -147 -169c-15 -13 -24 -38 -45 -38
c-13 0 -23 11 -23 25z" fill="currentColor"/>
</g>
<g transform="translate(5.3400, 33.5183)">
<path transform="scale(0.0040, -0.0040)" d="M27 41l-1 -66v-11c0 -22 1 -44 4 -66c45 38 93 80 93 139c0 33 -14 67 -43 67c-31 0 -52 -30 -53 -63zM-15 -138l-12 595c8 5 18 8 27 8s19 -3 27 -8l-7 -345c25 21 58 34 91 34c52 0 89 -48 89 -102c0 -80 -86 -117 -147 -169c-15 -13 -24 -38 -45 -38
c-13 0 -23 11 -23 25z" fill="currentColor"/>
</g>
<g transform="translate(0.8000, 36.0183)">
<path transform="scale(0.0040, -0.0040)" d="M266 -635h-6c-108 0 -195 88 -195 197c0 58 53 103 112 103c54 0 95 -47 95 -103c0 -52 -43 -95 -95 -95c-11 0 -21 2 -31 6c26 -39 68 -65 117 -65h4zM461 -203c68 24 113 90 113 164c0 90 -66 179 -173 190c19 -89 48 -242 60 -354zM74 28c0 -145 141 -247 264 -247
c1 0 47 0 82 6c-7 64 -29 203 -63 364c-79 -8 -124 -61 -124 -119c0 -44 25 -91 81 -123c5 -5 7 -10 7 -15c0 -11 -10 -22 -22 -22c-15 0 -126 62 -126 187c0 88 58 174 160 197c-14 58 -29 117 -46 175c-107 -121 -213 -243 -213 -403zM250 553c-29 96 -52 170 -52 346
c0 115 55 224 149 292c6 5 14 5 20 0c68 -80 133 -245 133 -358c0 -143 -86 -255 -180 -364c21 -68 39 -138 56 -207c2 0 7 1 13 1c155 0 256 -128 256 -261c0 -113 -74 -212 -180 -246c3 -35 5 -70 5 -105c0 -19 -1 -39 -2 -58c-7 -119 -88 -225 -202 -228l1 43
c93 2 153 92 159 191c1 18 2 37 2 55c0 31 -1 61 -4 92c-5 -1 -44 -8 -89 -8c-193 0 -333 180 -333 374c0 177 131 306 248 441zM428 916c0 34 1 66 -20 129c-99 -48 -162 -149 -162 -259c0 -52 12 -115 36 -194c80 97 146 198 146 324z" fill="currentColor"/>
</g>
<g transform="translate(10.5539, 25.5621)">
<text font-family="serif" font-size="2.2000" text-anchor="start" fill="currentColor">
<tspan>O</tspan>
</text>
</g>
<g transform="translate(10.5539, 38.5183)">
<path transform="scale(0.0040, -0.0040)" d="M218 136c66 0 108 -36 108 -89c0 -89 -113 -183 -218 -183c-66 0 -108 36 -108 89c0 89 113 183 218 183z" fill="currentColor"/>
</g>
<g transform="translate(11.7931, 37.5183)">
<path transform="scale(0.0040, -0.0040)" d="M218 136c66 0 108 -36 108 -89c0 -89 -113 -183 -218 -183c-66 0 -108 36 -108 89c0 89 113 183 218 183z" fill="currentColor"/>
</g>
<g transform="translate(10.5539, 39.5183)">
<path transform="scale(0.0040, -0.0040)" d="M218 136c66 0 108 -36 108 -89c0 -89 -113 -183 -218 -183c-66 0 -108 36 -108 89c0 89 113 183 218 183z" fill="currentColor"/>
</g>
<g transform="translate(10.5539, 37.5183)">
<path transform="scale(0.0040, -0.0040)" d="M218 136c66 0 108 -36 108 -89c0 -89 -113 -183 -218 -183c-66 0 -108 36 -108 89c0 89 113 183 218 183z" fill="currentColor"/>
</g>
<g transform="translate(10.5539, 36.0183)">
<path transform="scale(0.0040, -0.0040)" d="M218 136c66 0 108 -36 108 -89c0 -89 -113 -183 -218 -183c-66 0 -108 36 -108 89c0 89 113 183 218 183z" fill="currentColor"/>
</g>
<g transform="translate(0.8000, 20.0554)">
<path transform="scale(0.0040, -0.0040)" d="M208 -722c-49 0 -100 59 -100 62c0 11 12 26 24 26c16 0 34 -37 72 -37c65 0 89 99 89 195v8c0 35 9 109 18 163c-39 -13 -70 -40 -70 -70c0 -32 26 -27 26 -50c0 -9 -1 -27 -43 -27c-41 0 -84 28 -84 75c0 82 118 130 234 130c71 0 215 -11 215 -103
c0 -18 -6 -70 -69 -110c58 -11 102 -36 102 -91c0 -85 -90 -158 -179 -158c-73 0 -111 51 -111 60c0 12 16 25 28 25c13 0 17 -25 54 -25c44 0 95 41 95 93c0 46 -49 63 -100 63h-1c-6 0 -8 8 -8 16c0 11 5 24 18 24c36 0 69 39 69 77c0 35 -23 66 -80 76
c-11 -62 -31 -173 -40 -220c-20 -102 -84 -202 -159 -202zM546 257c0 -8 -18 -361 -18 -365c0 -10 0 -30 21 -30c18 0 47 20 55 20c5 0 9 -8 9 -17c0 -8 -3 -16 -12 -19c-30 -9 -57 -34 -87 -34c-32 0 -45 29 -53 58c-16 61 -26 125 -31 191c-27 -35 -56 -68 -87 -101
c6 -10 24 -33 64 -33c7 0 11 1 12 1c5 0 8 -7 8 -15c0 -6 0 -29 -56 -29c-17 0 -51 4 -70 33c-67 -63 -123 -105 -173 -105h-3c-31 1 -50 21 -75 32c-3 1 -5 5 -5 9c0 11 11 28 25 28c13 0 31 -20 57 -20c71 0 243 203 305 390c9 27 33 37 57 37c29 0 57 -15 57 -31z
M288 540c0 -9 -1 -24 -42 -24c-49 0 -91 36 -91 84c0 30 17 120 232 120c46 0 120 -41 171 -41c69 0 108 44 119 44s23 -11 23 -19c0 -7 -63 -75 -150 -75c-17 0 -30 2 -44 6c-9 -59 -26 -151 -35 -193c-22 -96 -88 -185 -163 -185c-6 0 -12 1 -19 2c-36 8 -67 43 -96 62
c-3 2 -4 5 -4 9c0 11 12 26 23 26c17 0 43 -48 82 -48c56 0 82 77 85 150c2 45 13 150 22 208c-12 3 -31 5 -32 5c-62 0 -113 -28 -113 -70c0 -39 32 -36 32 -61z" fill="currentColor"/>
</g>
<g transform="translate(9.9086, 14.9724)">
<text font-family="serif" font-size="2.4697" text-anchor="start" fill="currentColor">
<tspan>A-</tspan>
</text>
</g>
<g transform="translate(7.3412, 35.0183)">
<path transform="scale(0.0040, -0.0040)" d="M170 259c-51 0 -53 -43 -53 -100v-18v-18c0 -57 2 -100 53 -100c57 0 61 51 61 118s-4 118 -61 118zM117 266c15 10 33 16 53 16c101 0 170 -46 170 -141s-69 -141 -170 -141c-112 0 -170 124 -170 250c0 128 72 250 190 250c70 0 136 -39 136 -103
c0 -36 -29 -66 -65 -66s-66 30 -66 66c0 24 40 25 40 49c0 20 -23 31 -45 31c-66 0 -75 -65 -75 -139c0 -24 2 -48 2 -72z" fill="currentColor"/>
</g>
<g transform="translate(7.2900, 37.0183)">
<path transform="scale(0.0040, -0.0040)" d="M261 287c25 30 44 64 44 103c0 54 -55 87 -114 87c-46 0 -73 -36 -73 -71c0 -21 10 -42 31 -54zM292 269c23 -13 80 -54 80 -125c0 -73 -66 -144 -189 -144c-94 0 -183 54 -183 140c0 50 36 87 72 123c-37 28 -55 66 -55 103c0 68 60 134 174 134c80 0 157 -39 157 -110
c0 -46 -25 -86 -56 -121zM103 244c-31 -30 -59 -61 -59 -104c0 -69 66 -117 139 -117c54 0 86 42 86 83c0 24 -10 48 -35 62z" fill="currentColor"/>
</g>
<g transform="translate(4.4200, 10.1982)">
<path transform="scale(0.0040, -0.0040)" d="M27 41l-1 -66v-11c0 -22 1 -44 4 -66c45 38 93 80 93 139c0 33 -14 67 -43 67c-31 0 -52 -30 -53 -63zM-15 -138l-12 595c8 5 18 8 27 8s19 -3 27 -8l-7 -345c25 21 58 34 91 34c52 0 89 -48 89 -102c0 -80 -86 -117 -147 -169c-15 -13 -24 -38 -45 -38
c-13 0 -23 11 -23 25z" fill="currentColor"/>
</g>
<g transform="translate(5.3400, 8.6982)">
<path transform="scale(0.0040, -0.0040)" d="M27 41l-1 -66v-11c0 -22 1 -44 4 -66c45 38 93 80 93 139c0 33 -14 67 -43 67c-31 0 -52 -30 -53 -63zM-15 -138l-12 595c8 5 18 8 27 8s19 -3 27 -8l-7 -345c25 21 58 34 91 34c52 0 89 -48 89 -102c0 -80 -86 -117 -147 -169c-15 -13 -24 -38 -45 -38
c-13 0 -23 11 -23 25z" fill="currentColor"/>
</g>
<g transform="translate(0.8000, 11.1982)">
<path transform="scale(0.0040, -0.0040)" d="M266 -635h-6c-108 0 -195 88 -195 197c0 58 53 103 112 103c54 0 95 -47 95 -103c0 -52 -43 -95 -95 -95c-11 0 -21 2 -31 6c26 -39 68 -65 117 -65h4zM461 -203c68 24 113 90 113 164c0 90 -66 179 -173 190c19 -89 48 -242 60 -354zM74 28c0 -145 141 -247 264 -247
c1 0 47 0 82 6c-7 64 -29 203 -63 364c-79 -8 -124 -61 -124 -119c0 -44 25 -91 81 -123c5 -5 7 -10 7 -15c0 -11 -10 -22 -22 -22c-15 0 -126 62 -126 187c0 88 58 174 160 197c-14 58 -29 117 -46 175c-107 -121 -213 -243 -213 -403zM250 553c-29 96 -52 170 -52 346
c0 115 55 224 149 292c6 5 14 5 20 0c68 -80 133 -245 133 -358c0 -143 -86 -255 -180 -364c21 -68 39 -138 56 -207c2 0 7 1 13 1c155 0 256 -128 256 -261c0 -113 -74 -212 -180 -246c3 -35 5 -70 5 -105c0 -19 -1 -39 -2 -58c-7 -119 -88 -225 -202 -228l1 43
c93 2 153 92 159 191c1 18 2 37 2 55c0 31 -1 61 -4 92c-5 -1 -44 -8 -89 -8c-193 0 -333 180 -333 374c0 177 131 306 248 441zM428 916c0 34 1 66 -20 129c-99 -48 -162 -149 -162 -259c0 -52 12 -115 36 -194c80 97 146 198 146 324z" fill="currentColor"/>
</g>
<g transform="translate(10.5539, 11.1982)">
<path transform="scale(0.0040, -0.0040)" d="M218 136c66 0 108 -36 108 -89c0 -89 -113 -183 -218 -183c-66 0 -108 36 -108 89c0 89 113 183 218 183z" fill="currentColor"/>
</g>
<g transform="translate(-0.0600, 22.6083)">
<rect x="0.0000" y="-14.4600" width="0.1600" height="28.9201" ry="0.0500" fill="currentColor"/>
</g>
<g transform="translate(10.8134, 41.9481)">
<path transform="scale(0.0022, -0.0022)" d="M176 285c-113 0 -98 -46 -124 -46c-9 0 -18 7 -18 18v223c0 11 7 20 17 20c1 0 74 -14 140 -14c65 0 141 14 142 14c11 0 18 -7 18 -14c0 -8 -93 -107 -261 -107c-11 0 -20 -10 -20 -21v-73c27 27 67 36 106 36c117 0 188 -50 188 -161c0 -97 -96 -160 -200 -160
c-84 0 -164 43 -164 119c0 32 26 58 58 58s58 -26 58 -58c0 -22 -36 -26 -36 -48c0 -35 44 -42 84 -42c55 0 71 67 71 131c0 59 -8 125 -59 125z" fill="currentColor"/>
</g>
<g transform="translate(11.2060, 41.3868)">
<circle stroke-linejoin="round" stroke-linecap="round" fill="none" stroke="currentColor" stroke-width="0.1000" r="0.7735"/>
</g>
<g transform="translate(13.5473, 38.5183)">
<path transform="scale(0.0040, -0.0040)" d="M0 0c0 31 25 56 56 56s56 -25 56 -56s-25 -56 -56 -56s-56 25 -56 56z" fill="currentColor"/>
</g>
<g transform="translate(11.9843, 29.6090)">
<path transform="scale(0.0022, -0.0022)" d="M140 501c6 0 42 -15 80 -15c39 0 74 15 83 15c10 0 17 -7 17 -14c0 -2 0 -5 -2 -7l-282 -319h152v3c0 40 39 31 75 79c23 31 23 59 39 59c8 0 16 -6 16 -17v-124h79c12 0 18 -9 18 -18s-6 -18 -18 -18h-79c2 -51 33 -96 80 -96c10 0 15 -8 15 -15s-5 -14 -15 -14
c-49 0 -96 14 -145 14s-97 -14 -146 -14c-10 0 -14 7 -14 14s4 15 14 15c47 0 79 45 81 96h-152c-29 0 -38 17 -38 28c0 13 125 127 125 327c0 11 8 21 17 21z" fill="currentColor"/>
</g>
<g transform="translate(12.4452, 29.0466)">
<circle stroke-linejoin="round" stroke-linecap="round" fill="none" stroke="currentColor" stroke-width="0.1000" r="0.7746"/>
</g>
<g transform="translate(13.5473, 37.5183)">
<path transform="scale(0.0040, -0.0040)" d="M0 0c0 31 25 56 56 56s56 -25 56 -56s-25 -56 -56 -56s-56 25 -56 56z" fill="currentColor"/>
</g>
<g transform="translate(10.8134, 44.0951)">
<path transform="scale(0.0022, -0.0022)" d="M270 266c0 -39 76 -28 76 -125c0 -94 -83 -141 -186 -141c-82 0 -160 45 -160 119c0 32 26 58 58 58s58 -26 58 -58c0 -22 -36 -26 -36 -48c0 -33 42 -42 80 -42c46 0 56 58 56 112v38c0 40 -4 69 -43 69h-74c-12 0 -18 9 -18 18s6 18 18 18h74c40 0 43 31 43 73v30
c0 50 -16 84 -61 84c-34 0 -71 -8 -71 -38c0 -19 32 -23 32 -42c0 -28 -23 -51 -51 -51s-51 23 -51 51c0 67 68 109 141 109c93 0 174 -31 174 -113c0 -112 -59 -78 -59 -121z" fill="currentColor"/>
</g>
<g transform="translate(11.2060, 43.5338)">
<circle stroke-linejoin="round" stroke-linecap="round" fill="none" stroke="currentColor" stroke-width="0.1000" r="0.7735"/>
</g>
<g transform="translate(13.5473, 39.5183)">
<path transform="scale(0.0040, -0.0040)" d="M0 0c0 31 25 56 56 56s56 -25 56 -56s-25 -56 -56 -56s-56 25 -56 56z" fill="currentColor"/>
</g>
<g transform="translate(10.7792, 31.7561)">
<path transform="scale(0.0022, -0.0022)" d="M234 0c-91 0 -93 69 -145 69c-29 0 -57 -21 -60 -56c-1 -9 -7 -13 -14 -13s-15 5 -15 14c0 154 232 168 232 341c0 56 -13 116 -61 116c-33 0 -66 -14 -66 -44c0 -24 31 -37 31 -61c0 -34 -27 -61 -61 -61s-61 27 -61 61c0 79 74 134 157 134c98 0 190 -55 190 -145
c0 -143 -134 -156 -232 -206h7c86 0 113 -61 170 -61c51 0 39 42 59 42c7 0 15 -5 15 -14c0 -24 -46 -116 -146 -116z" fill="currentColor"/>
</g>
<g transform="translate(11.2060, 31.1948)">
<circle stroke-linejoin="round" stroke-linecap="round" fill="none" stroke="currentColor" stroke-width="0.1000" r="0.7735"/>
</g>
<g transform="translate(13.5473, 36.5183)">
<path transform="scale(0.0040, -0.0040)" d="M0 0c0 31 25 56 56 56s56 -25 56 -56s-25 -56 -56 -56s-56 25 -56 56z" fill="currentColor"/>
</g>
<g transform="translate(10.8134, 27.4598)">
<path transform="scale(0.0022, -0.0022)" d="M129 129h130c0 -52 32 -100 81 -100c10 0 14 -8 14 -15s-4 -14 -14 -14c-49 0 -97 14 -146 14s-96 -14 -145 -14c-10 0 -15 7 -15 14s5 15 15 15c49 0 80 48 80 100zM194 486c22 0 41 15 49 15s16 -9 16 -21v-351h-130v215c0 15 -11 23 -20 23c-5 0 -9 -2 -11 -7
l-66 -127c-4 -7 -9 -9 -15 -9c-9 0 -19 7 -19 17c0 3 0 6 2 9l129 250c7 14 36 -14 65 -14z" fill="currentColor"/>
</g>
<g transform="translate(11.2060, 26.8828)">
<circle stroke-linejoin="round" stroke-linecap="round" fill="none" stroke="currentColor" stroke-width="0.1000" r="0.7892"/>
</g>
<g transform="translate(11.7931, 35.0183)">
<rect x="-0.0650" y="-2.5000" width="0.1300" height="6.8139" ry="0.0400" fill="currentColor"/>
</g>
<g transform="translate(13.5473, 35.5183)">
<path transform="scale(0.0040, -0.0040)" d="M0 0c0 31 25 56 56 56s56 -25 56 -56s-25 -56 -56 -56s-56 25 -56 56z" fill="currentColor"/>
</g>
<g transform="translate(11.7931, 10.1982)">
<rect x="-0.0650" y="-2.5000" width="0.1300" height="3.3139" ry="0.0400" fill="currentColor"/>
</g>
<g transform="translate(12.3081, 10.6982)">
<path transform="scale(0.0040, -0.0040)" d="M0 0c0 31 25 56 56 56s56 -25 56 -56s-25 -56 -56 -56s-56 25 -56 56z" fill="currentColor"/>
</g>
<g transform="translate(48.2423, 36.0183)">
<path transform="scale(0.0040, -0.0040)" d="M218 136c66 0 108 -36 108 -89c0 -89 -113 -183 -218 -183c-66 0 -108 36 -108 89c0 89 113 183 218 183z" fill="currentColor"/>
</g>
<g transform="translate(47.3921, 14.9724)">
<text font-family="serif" font-size="2.4697" text-anchor="start" fill="currentColor">
<tspan>me</tspan>
</text>
</g>
<g transform="translate(48.2423, 9.6982)">
<path transform="scale(0.0040, -0.0040)" d="M218 136c66 0 108 -36 108 -89c0 -89 -113 -183 -218 -183c-66 0 -108 36 -108 89c0 89 113 183 218 183z" fill="currentColor"/>
</g>
<g transform="translate(43.8032, 12.6582)">
<path transform="scale(0.0040, -0.0040)" d="M0 0h-16v250h16v-250zM0 0v250c97 59 224 148 224 259c0 57 -15 112 -40 163c-3 16 10 27 23 27c7 0 15 -3 20 -11c25 -56 40 -117 40 -179c0 -203 -267 -306 -267 -509z" fill="currentColor"/>
</g>
<g transform="translate(43.7382, 10.1982)">
<rect x="-0.0650" y="-0.8139" width="0.1300" height="3.3139" ry="0.0400" fill="currentColor"/>
</g>
<g transform="translate(43.0962, 14.9724)">
<text font-family="serif" font-size="2.4697" text-anchor="start" fill="currentColor">
<tspan>do</tspan>
</text>
</g>
<g transform="translate(43.6732, 9.1982)">
<path transform="scale(0.0040, -0.0040)" d="M218 136c66 0 108 -36 108 -89c0 -89 -113 -183 -218 -183c-66 0 -108 36 -108 89c0 89 113 183 218 183z" fill="currentColor"/>
</g>
<g transform="translate(48.2423, 37.5183)">
<path transform="scale(0.0040, -0.0040)" d="M218 136c66 0 108 -36 108 -89c0 -89 -113 -183 -218 -183c-66 0 -108 36 -108 89c0 89 113 183 218 183z" fill="currentColor"/>
</g>
<g transform="translate(37.2600, 43.0951)">
<path transform="scale(0.0022, -0.0022)" d="M176 285c-113 0 -98 -46 -124 -46c-9 0 -18 7 -18 18v223c0 11 7 20 17 20c1 0 74 -14 140 -14c65 0 141 14 142 14c11 0 18 -7 18 -14c0 -8 -93 -107 -261 -107c-11 0 -20 -10 -20 -21v-73c27 27 67 36 106 36c117 0 188 -50 188 -161c0 -97 -96 -160 -200 -160
c-84 0 -164 43 -164 119c0 32 26 58 58 58s58 -26 58 -58c0 -22 -36 -26 -36 -48c0 -35 44 -42 84 -42c55 0 71 67 71 131c0 59 -8 125 -59 125z" fill="currentColor"/>
</g>
<g transform="translate(37.6526, 42.5338)">
<circle stroke-linejoin="round" stroke-linecap="round" fill="none" stroke="currentColor" stroke-width="0.1000" r="0.7735"/>
</g>
<g transform="translate(38.8327, 39.5183)">
<path transform="scale(0.0040, -0.0040)" d="M0 0c0 31 25 56 56 56s56 -25 56 -56s-25 -56 -56 -56s-56 25 -56 56z" fill="currentColor"/>
</g>
<g transform="translate(37.2697, 29.6090)">
<path transform="scale(0.0022, -0.0022)" d="M140 501c6 0 42 -15 80 -15c39 0 74 15 83 15c10 0 17 -7 17 -14c0 -2 0 -5 -2 -7l-282 -319h152v3c0 40 39 31 75 79c23 31 23 59 39 59c8 0 16 -6 16 -17v-124h79c12 0 18 -9 18 -18s-6 -18 -18 -18h-79c2 -51 33 -96 80 -96c10 0 15 -8 15 -15s-5 -14 -15 -14
c-49 0 -96 14 -145 14s-97 -14 -146 -14c-10 0 -14 7 -14 14s4 15 14 15c47 0 79 45 81 96h-152c-29 0 -38 17 -38 28c0 13 125 127 125 327c0 11 8 21 17 21z" fill="currentColor"/>
</g>
<g transform="translate(37.7306, 29.0466)">
<circle stroke-linejoin="round" stroke-linecap="round" fill="none" stroke="currentColor" stroke-width="0.1000" r="0.7746"/>
</g>
<g transform="translate(49.6630, 43.5951)">
<path transform="scale(0.0022, -0.0022)" d="M176 285c-113 0 -98 -46 -124 -46c-9 0 -18 7 -18 18v223c0 11 7 20 17 20c1 0 74 -14 140 -14c65 0 141 14 142 14c11 0 18 -7 18 -14c0 -8 -93 -107 -261 -107c-11 0 -20 -10 -20 -21v-73c27 27 67 36 106 36c117 0 188 -50 188 -161c0 -97 -96 -160 -200 -160
c-84 0 -164 43 -164 119c0 32 26 58 58 58s58 -26 58 -58c0 -22 -36 -26 -36 -48c0 -35 44 -42 84 -42c55 0 71 67 71 131c0 59 -8 125 -59 125z" fill="currentColor"/>
</g>
<g transform="translate(50.0556, 43.0338)">
<circle stroke-linejoin="round" stroke-linecap="round" fill="none" stroke="currentColor" stroke-width="0.1000" r="0.7735"/>
</g>
<g transform="translate(51.2357, 39.5183)">
<path transform="scale(0.0040, -0.0040)" d="M0 0c0 31 25 56 56 56s56 -25 56 -56s-25 -56 -56 -56s-56 25 -56 56z" fill="currentColor"/>
</g>
<g transform="translate(49.6727, 29.6090)">
<path transform="scale(0.0022, -0.0022)" d="M140 501c6 0 42 -15 80 -15c39 0 74 15 83 15c10 0 17 -7 17 -14c0 -2 0 -5 -2 -7l-282 -319h152v3c0 40 39 31 75 79c23 31 23 59 39 59c8 0 16 -6 16 -17v-124h79c12 0 18 -9 18 -18s-6 -18 -18 -18h-79c2 -51 33 -96 80 -96c10 0 15 -8 15 -15s-5 -14 -15 -14
c-49 0 -96 14 -145 14s-97 -14 -146 -14c-10 0 -14 7 -14 14s4 15 14 15c47 0 79 45 81 96h-152c-29 0 -38 17 -38 28c0 13 125 127 125 327c0 11 8 21 17 21z" fill="currentColor"/>
</g>
<g transform="translate(50.1336, 29.0466)">
<circle stroke-linejoin="round" stroke-linecap="round" fill="none" stroke="currentColor" stroke-width="0.1000" r="0.7746"/>
</g>
<g transform="translate(51.2357, 37.5183)">
<path transform="scale(0.0040, -0.0040)" d="M0 0c0 31 25 56 56 56s56 -25 56 -56s-25 -56 -56 -56s-56 25 -56 56z" fill="currentColor"/>
</g>
<g transform="translate(48.5017, 41.4481)">
<path transform="scale(0.0022, -0.0022)" d="M270 266c0 -39 76 -28 76 -125c0 -94 -83 -141 -186 -141c-82 0 -160 45 -160 119c0 32 26 58 58 58s58 -26 58 -58c0 -22 -36 -26 -36 -48c0 -33 42 -42 80 -42c46 0 56 58 56 112v38c0 40 -4 69 -43 69h-74c-12 0 -18 9 -18 18s6 18 18 18h74c40 0 43 31 43 73v30
c0 50 -16 84 -61 84c-34 0 -71 -8 -71 -38c0 -19 32 -23 32 -42c0 -28 -23 -51 -51 -51s-51 23 -51 51c0 67 68 109 141 109c93 0 174 -31 174 -113c0 -112 -59 -78 -59 -121z" fill="currentColor"/>
</g>
<g transform="translate(48.8944, 40.8868)">
<circle stroke-linejoin="round" stroke-linecap="round" fill="none" stroke="currentColor" stroke-width="0.1000" r="0.7735"/>
</g>
<g transform="translate(51.2357, 38.5183)">
<path transform="scale(0.0040, -0.0040)" d="M0 0c0 31 25 56 56 56s56 -25 56 -56s-25 -56 -56 -56s-56 25 -56 56z" fill="currentColor"/>
</g>
<g transform="translate(48.4676, 31.7561)">
<path transform="scale(0.0022, -0.0022)" d="M234 0c-91 0 -93 69 -145 69c-29 0 -57 -21 -60 -56c-1 -9 -7 -13 -14 -13s-15 5 -15 14c0 154 232 168 232 341c0 56 -13 116 -61 116c-33 0 -66 -14 -66 -44c0 -24 31 -37 31 -61c0 -34 -27 -61 -61 -61s-61 27 -61 61c0 79 74 134 157 134c98 0 190 -55 190 -145
c0 -143 -134 -156 -232 -206h7c86 0 113 -61 170 -61c51 0 39 42 59 42c7 0 15 -5 15 -14c0 -24 -46 -116 -146 -116z" fill="currentColor"/>
</g>
<g transform="translate(48.8944, 31.1948)">
<circle stroke-linejoin="round" stroke-linecap="round" fill="none" stroke="currentColor" stroke-width="0.1000" r="0.7735"/>
</g>
<g transform="translate(51.2357, 36.5183)">
<path transform="scale(0.0040, -0.0040)" d="M0 0c0 31 25 56 56 56s56 -25 56 -56s-25 -56 -56 -56s-56 25 -56 56z" fill="currentColor"/>
</g>
<g transform="translate(48.5017, 27.4598)">
<path transform="scale(0.0022, -0.0022)" d="M129 129h130c0 -52 32 -100 81 -100c10 0 14 -8 14 -15s-4 -14 -14 -14c-49 0 -97 14 -146 14s-96 -14 -145 -14c-10 0 -15 7 -15 14s5 15 15 15c49 0 80 48 80 100zM194 486c22 0 41 15 49 15s16 -9 16 -21v-351h-130v215c0 15 -11 23 -20 23c-5 0 -9 -2 -11 -7
l-66 -127c-4 -7 -9 -9 -15 -9c-9 0 -19 7 -19 17c0 3 0 6 2 9l129 250c7 14 36 -14 65 -14z" fill="currentColor"/>
</g>
<g transform="translate(48.8944, 26.8828)">
<circle stroke-linejoin="round" stroke-linecap="round" fill="none" stroke="currentColor" stroke-width="0.1000" r="0.7892"/>
</g>
<g transform="translate(49.4815, 35.0183)">
<rect x="-0.0650" y="-2.5000" width="0.1300" height="6.3139" ry="0.0400" fill="currentColor"/>
</g>
<g transform="translate(51.2357, 35.5183)">
<path transform="scale(0.0040, -0.0040)" d="M0 0c0 31 25 56 56 56s56 -25 56 -56s-25 -56 -56 -56s-56 25 -56 56z" fill="currentColor"/>
</g>
<g transform="translate(48.3073, 10.1982)">
<rect x="-0.0650" y="-0.3139" width="0.1300" height="3.3139" ry="0.0400" fill="currentColor"/>
</g>
<g transform="translate(48.2423, 25.5621)">
<text font-family="serif" font-size="2.2000" text-anchor="start" fill="currentColor">
<tspan>C</tspan>
</text>
</g>
<g transform="translate(49.4035, 39.0183)">
<path transform="scale(0.0040, -0.0040)" d="M218 136c66 0 108 -36 108 -89c0 -89 -113 -183 -218 -183c-66 0 -108 36 -108 89c0 89 113 183 218 183z" fill="currentColor"/>
</g>
<g transform="translate(49.4815, 37.5183)">
<path transform="scale(0.0040, -0.0040)" d="M218 136c66 0 108 -36 108 -89c0 -89 -113 -183 -218 -183c-66 0 -108 36 -108 89c0 89 113 183 218 183z" fill="currentColor"/>
</g>
<g transform="translate(48.2423, 39.0183)">
<path transform="scale(0.0040, -0.0040)" d="M218 136c66 0 108 -36 108 -89c0 -89 -113 -183 -218 -183c-66 0 -108 36 -108 89c0 89 113 183 218 183z" fill="currentColor"/>
</g>
<g transform="translate(35.8393, 25.5835)">
<text font-family="serif" font-size="2.2000" text-anchor="start" fill="currentColor">
<tspan>M</tspan>
</text>
</g>
<g transform="translate(37.0005, 38.5183)">
<path transform="scale(0.0040, -0.0040)" d="M218 136c66 0 108 -36 108 -89c0 -89 -113 -183 -218 -183c-66 0 -108 36 -108 89c0 89 113 183 218 183z" fill="currentColor"/>
</g>
<g transform="translate(38.8327, 37.5183)">
<path transform="scale(0.0040, -0.0040)" d="M0 0c0 31 25 56 56 56s56 -25 56 -56s-25 -56 -56 -56s-56 25 -56 56z" fill="currentColor"/>
</g>
<g transform="translate(35.8393, 38.5183)">
<path transform="scale(0.0040, -0.0040)" d="M218 136c66 0 108 -36 108 -89c0 -89 -113 -183 -218 -183c-66 0 -108 36 -108 89c0 89 113 183 218 183z" fill="currentColor"/>
</g>
<g transform="translate(35.8393, 37.0183)">
<path transform="scale(0.0040, -0.0040)" d="M218 136c66 0 108 -36 108 -89c0 -89 -113 -183 -218 -183c-66 0 -108 36 -108 89c0 89 113 183 218 183z" fill="currentColor"/>
</g>
<g transform="translate(35.8393, 36.0183)">
<path transform="scale(0.0040, -0.0040)" d="M218 136c66 0 108 -36 108 -89c0 -89 -113 -183 -218 -183c-66 0 -108 36 -108 89c0 89 113 183 218 183z" fill="currentColor"/>
</g>
<g transform="translate(34.6477, 14.9724)">
<text font-family="serif" font-size="2.4697" text-anchor="start" fill="currentColor">
<tspan>you</tspan>
</text>
</g>
<g transform="translate(37.0785, 37.0183)">
<path transform="scale(0.0040, -0.0040)" d="M218 136c66 0 108 -36 108 -89c0 -89 -113 -183 -218 -183c-66 0 -108 36 -108 89c0 89 113 183 218 183z" fill="currentColor"/>
</g>
<g transform="translate(35.8393, 8.6982)">
<path transform="scale(0.0040, -0.0040)" d="M218 136c66 0 108 -36 108 -89c0 -89 -113 -183 -218 -183c-66 0 -108 36 -108 89c0 89 113 183 218 183z" fill="currentColor"/>
</g>
<g transform="translate(29.5456, 10.1982)">
<rect x="-0.0650" y="-0.8139" width="0.1300" height="3.0082" ry="0.0400" fill="currentColor"/>
</g>
<g transform="translate(27.7086, 14.9724)">
<text font-family="serif" font-size="2.4697" text-anchor="start" fill="currentColor">
<tspan>love,</tspan>
</text>
</g>
<g transform="translate(29.4806, 9.1982)">
<path transform="scale(0.0040, -0.0040)" d="M218 136c66 0 108 -36 108 -89c0 -89 -113 -183 -218 -183c-66 0 -108 36 -108 89c0 89 113 183 218 183z" fill="currentColor"/>
</g>
<g transform="translate(36.0646, 31.7561)">
<path transform="scale(0.0022, -0.0022)" d="M234 0c-91 0 -93 69 -145 69c-29 0 -57 -21 -60 -56c-1 -9 -7 -13 -14 -13s-15 5 -15 14c0 154 232 168 232 341c0 56 -13 116 -61 116c-33 0 -66 -14 -66 -44c0 -24 31 -37 31 -61c0 -34 -27 -61 -61 -61s-61 27 -61 61c0 79 74 134 157 134c98 0 190 -55 190 -145
c0 -143 -134 -156 -232 -206h7c86 0 113 -61 170 -61c51 0 39 42 59 42c7 0 15 -5 15 -14c0 -24 -46 -116 -146 -116z" fill="currentColor"/>
</g>
<g transform="translate(36.4914, 31.1948)">
<circle stroke-linejoin="round" stroke-linecap="round" fill="none" stroke="currentColor" stroke-width="0.1000" r="0.7735"/>
</g>
<g transform="translate(38.8327, 36.5183)">
<path transform="scale(0.0040, -0.0040)" d="M0 0c0 31 25 56 56 56s56 -25 56 -56s-25 -56 -56 -56s-56 25 -56 56z" fill="currentColor"/>
</g>
<g transform="translate(36.0987, 27.4598)">
<path transform="scale(0.0022, -0.0022)" d="M129 129h130c0 -52 32 -100 81 -100c10 0 14 -8 14 -15s-4 -14 -14 -14c-49 0 -97 14 -146 14s-96 -14 -145 -14c-10 0 -15 7 -15 14s5 15 15 15c49 0 80 48 80 100zM194 486c22 0 41 15 49 15s16 -9 16 -21v-351h-130v215c0 15 -11 23 -20 23c-5 0 -9 -2 -11 -7
l-66 -127c-4 -7 -9 -9 -15 -9c-9 0 -19 7 -19 17c0 3 0 6 2 9l129 250c7 14 36 -14 65 -14z" fill="currentColor"/>
</g>
<g transform="translate(36.4914, 26.8828)">
<circle stroke-linejoin="round" stroke-linecap="round" fill="none" stroke="currentColor" stroke-width="0.1000" r="0.7892"/>
</g>
<g transform="translate(37.0785, 35.0183)">
<rect x="-0.0650" y="-2.5000" width="0.1300" height="5.8139" ry="0.0400" fill="currentColor"/>
</g>
<g transform="translate(38.8327, 35.5183)">
<path transform="scale(0.0040, -0.0040)" d="M0 0c0 31 25 56 56 56s56 -25 56 -56s-25 -56 -56 -56s-56 25 -56 56z" fill="currentColor"/>
</g>
<g transform="translate(38.8327, 38.5183)">
<path transform="scale(0.0040, -0.0040)" d="M0 0c0 31 25 56 56 56s56 -25 56 -56s-25 -56 -56 -56s-56 25 -56 56z" fill="currentColor"/>
</g>
<g transform="translate(35.9043, 10.1982)">
<rect x="-0.0650" y="-1.3139" width="0.1300" height="3.3139" ry="0.0400" fill="currentColor"/>
</g>
<g transform="translate(36.0987, 40.9481)">
<path transform="scale(0.0022, -0.0022)" d="M270 266c0 -39 76 -28 76 -125c0 -94 -83 -141 -186 -141c-82 0 -160 45 -160 119c0 32 26 58 58 58s58 -26 58 -58c0 -22 -36 -26 -36 -48c0 -33 42 -42 80 -42c46 0 56 58 56 112v38c0 40 -4 69 -43 69h-74c-12 0 -18 9 -18 18s6 18 18 18h74c40 0 43 31 43 73v30
c0 50 -16 84 -61 84c-34 0 -71 -8 -71 -38c0 -19 32 -23 32 -42c0 -28 -23 -51 -51 -51s-51 23 -51 51c0 67 68 109 141 109c93 0 174 -31 174 -113c0 -112 -59 -78 -59 -121z" fill="currentColor"/>
</g>
<g transform="translate(36.4914, 40.3868)">
<circle stroke-linejoin="round" stroke-linecap="round" fill="none" stroke="currentColor" stroke-width="0.1000" r="0.7735"/>
</g>
</svg>
